<?xml version="1.0" encoding="utf-8"?>
<!-- Generator: Adobe Illustrator 24.3.0, SVG Export Plug-In . SVG Version: 6.00 Build 0)  -->
<svg version="1.1" id="레이어_1" xmlns="http://www.w3.org/2000/svg" xmlns:xlink="http://www.w3.org/1999/xlink" x="0px"
	 y="0px" viewBox="0 0 252.3 76.7" style="enable-background:new 0 0 252.3 76.7;" xml:space="preserve">
<style type="text/css">
	.st0{fill:#EE0000;}
</style>
<g id="레이어_2_1_">
	<g id="Layer_1">
		<rect x="64.7" y="60" class="st0" width="181.8" height="0.4"/>
		<polygon points="158.2,48.1 156.6,54.3 156.6,54.3 155.2,48.1 152.2,48.1 149.8,57.6 152,57.6 153.5,51.5 153.5,51.5 155.1,57.6 
			158,57.6 160.4,48.1 		"/>
		<path d="M144.8,52.9l1.7-2.7l0,0l0.2,2.7H144.8z M145.6,48.1c-2,3.2-4.1,6.4-6.2,9.5h2.7l1.6-2.7h2.9l0.2,2.7h2.6
			c-0.3-3.1-0.7-6.4-0.9-9.5L145.6,48.1z"/>
		<path d="M163.5,50.6c0.1-0.5,0.9-0.7,1.2-0.7c0.6,0,1.2,0.2,1.6,0.5c0,0,0.5-1.9,0.5-1.9c-0.7-0.4-1.5-0.6-2.3-0.5
			c-2.2,0-3.4,1.3-3.6,2.5c-0.4,2.2,2.2,3.4,1.9,4.4c-0.2,0.6-0.8,0.9-1.3,0.8c-0.7,0-1.3-0.2-1.9-0.6l-0.5,2.2
			c0.8,0.3,1.7,0.4,2.5,0.5c2.6,0,3.4-1.2,3.7-2.5C165.8,53.1,163.2,51.9,163.5,50.6"/>
		<path d="M138.2,50.6c0.1-0.5,0.8-0.7,1.2-0.7c0.6,0,1.2,0.2,1.7,0.5c0,0,0.6-1.8,0.6-1.9c-0.7-0.4-1.5-0.6-2.4-0.6
			c-2.2,0-3.4,1.3-3.6,2.5c-0.4,2.2,2.2,3.4,1.9,4.4c-0.2,0.6-0.8,0.9-1.3,0.8c-0.7,0-1.3-0.2-1.9-0.6l-0.5,2.2
			c0.8,0.3,1.7,0.4,2.5,0.5c2.6,0,3.4-1.2,3.7-2.5C140.6,53,137.9,51.9,138.2,50.6"/>
		<polygon points="202.7,54.3 202.7,54.3 201.3,48.1 198.3,48.1 195.9,57.6 198.1,57.6 199.6,51.5 199.7,51.5 201.2,57.6 
			204.1,57.6 206.5,48.1 204.3,48.1 		"/>
		<polygon points="175,50.1 178.6,50.1 179.1,48.1 173,48.1 170.6,57.6 173.1,57.6 174,53.8 177,53.8 177.5,51.8 174.5,51.8 		"/>
		<polygon points="214.4,48.1 207.4,48.1 206.9,50.1 209.2,50.1 207.2,57.6 209.7,57.6 211.6,50.1 213.9,50.1 		"/>
		<polygon points="215.3,48.1 212.9,57.6 215.4,57.6 217.8,48.1 		"/>
		<polygon points="223.4,53.8 224,51.8 220.8,51.8 221.3,50.1 225.2,50.1 225.7,48.1 219.3,48.1 216.9,57.6 223.3,57.6 223.8,55.5 
			219.9,55.5 220.3,53.8 		"/>
		<polygon points="239.4,53.8 239.9,51.8 236.7,51.8 237.1,50.1 241.1,50.1 241.6,48.1 235.2,48.1 232.8,57.6 239.2,57.6 
			239.7,55.5 235.8,55.5 236.2,53.8 		"/>
		<path d="M193.7,52.8c-0.4,1.5-1.6,2.8-3,2.8c-1.4,0-1.9-1.4-1.5-2.8c0.4-1.5,1.5-2.8,3-2.8S194.1,51.3,193.7,52.8 M192.7,48
			c-2.9,0-5.4,2-6,4.9c-0.8,3.1,0.7,4.9,3.5,4.9c2.8,0,5.3-1.9,5.9-4.6C197.1,49.8,195.5,48,192.7,48"/>
		<path d="M244.6,50.6c0.1-0.5,0.9-0.7,1.2-0.7c0.6,0,1.2,0.1,1.6,0.5c0,0,0.5-1.9,0.5-1.9c-0.7-0.4-1.5-0.6-2.2-0.5
			c-2.2,0-3.4,1.3-3.6,2.4c-0.4,2.2,2.2,3.4,1.9,4.4c-0.2,0.6-0.8,0.9-1.3,0.8c-0.7,0-1.3-0.2-1.9-0.6l-0.5,2.2
			c0.8,0.3,1.7,0.4,2.5,0.5c2.6,0,3.4-1.2,3.7-2.5C246.9,53.1,244.3,51.9,244.6,50.6"/>
		<path d="M184,53.4c1.2-0.3,2.2-1.2,2.5-2.4c0.5-1.9-0.1-2.9-2.2-2.9h-4.2l-2.4,9.5h2.4l1.9-7.5h1.2c0.4,0,1.1,0,0.9,1
			c-0.2,0.9-1,1.4-1.9,1.3h-0.9l0.9,5.2h2.7C184.9,57.6,184,53.6,184,53.4"/>
		<path d="M230.9,53.4c1.2-0.3,2.2-1.2,2.5-2.4c0.5-1.9-0.1-2.9-2.2-2.9H227l-2.4,9.5h2.4l1.9-7.5h1.2c0.4,0,1.1,0,0.9,1
			c-0.2,0.8-1,1.4-1.9,1.2h-0.9l0.9,5.2h2.7C231.8,57.5,230.9,53.6,230.9,53.4"/>
		<polygon points="100.1,57.6 100.6,55.5 96.6,55.5 97.1,53.8 100.3,53.8 100.8,51.8 97.6,51.8 98,50.1 102,50.1 102.5,48.1 
			96,48.1 93.6,57.6 		"/>
		<polygon points="83.4,57.6 83.9,55.5 80,55.5 80.4,53.8 83.6,53.8 84.1,51.8 80.9,51.8 81.3,50.1 85.3,50.1 85.8,48.1 79.4,48.1 
			77,57.6 		"/>
		<path d="M105.5,57.7c0.8,0,1.6-0.1,2.4-0.3l0.6-2.2c-0.8,0.2-1.6,0.4-2.5,0.4c-1.5,0-1.9-1.4-1.5-2.8c0.4-1.6,1.8-2.8,3.4-2.8
			c0.6,0,1.2,0.1,1.8,0.4l0.5-2.1c-0.7-0.2-1.5-0.3-2.2-0.3c-2.9,0-5.5,2-6,4.9C101.1,56,102.6,57.7,105.5,57.7"/>
		<polygon points="111.6,57.6 114,48.1 111.5,48.1 109.1,57.6 		"/>
		<polygon points="69.7,50.8 69.7,50.8 69.6,57.6 71.7,57.6 75,50.8 75.1,50.8 73.3,57.6 75.5,57.6 77.9,48.1 74.6,48.1 71.6,54.1 
			71.6,54.1 71.7,48.1 68.2,48.1 65.8,57.6 67.9,57.6 		"/>
		<polygon points="115.3,57.6 116.8,51.5 116.8,51.5 118.4,57.6 121.3,57.6 123.7,48.1 121.5,48.1 119.9,54.3 119.9,54.3 
			118.4,48.1 115.5,48.1 113.1,57.6 		"/>
		<path d="M91.4,52.8c-0.4,1.4-1.3,2.7-2.7,2.7h-1.1l1.4-5.4h1.2C91.6,50.1,91.9,51.1,91.4,52.8 M93.9,52.8c1-4-1.2-4.7-2.3-4.7
			h-4.5l-2.4,9.5h4C91.4,57.6,93.2,55.6,93.9,52.8"/>
		<path d="M126.8,50.6c0.1-0.5,0.8-0.7,1.2-0.7c0.6,0,1.2,0.2,1.6,0.5c0,0,0.5-1.9,0.5-1.9c-0.7-0.4-1.5-0.6-2.2-0.5
			c-2.2,0-3.4,1.3-3.6,2.5c-0.4,2.2,2.2,3.4,1.9,4.4c-0.2,0.6-0.8,0.9-1.3,0.8c-0.7,0-1.3-0.2-1.9-0.6l-0.5,2.2
			c0.8,0.3,1.7,0.4,2.5,0.5c2.6,0,3.4-1.2,3.7-2.5C129.1,53.1,126.5,51.9,126.8,50.6"/>
		<path class="st0" d="M30.7,62.8c0.7-0.4,2.3-1.2,2.4-1.3c0.2-0.1,0.5-0.2,0.5-0.1c0,0.3,0,1.1,0.5,1.2c0.1,0,0.5-0.1,0.5,0
			c0.1,0.1,0.1,0.2,0.2,0.3c0,0.1,0.3,0,0.3,0.1s0,0.3,0.1,0.3c0.1,0.1,0.3-0.1,0.4,0c0.2,0.1,0.3,0.2,0.2,0.4
			c0,0.2,0.1,0.4,0.5,0.1c0.2-0.2,0.2-0.1,0.4-0.2c0.1-0.1,0.2-0.1,0.4,0c0.1,0.1,0.2,0.2,0.3,0.2c0.2,0.1,0.3,0,0.4,0
			s0.2,0.3,0.3,0.3c0.1,0,0.3-0.2,0.3-0.2c0.1,0.1-0.2,0.6,0.1,0.7c0.2,0,0.2-0.1,0.4-0.1c0.1,0,0.2-0.2,0.3-0.2s0.2,0.1,0.3,0
			c0.1,0,0.2-0.1,0.3-0.2c0.2-0.1,0.3,0,0.4-0.1s0-0.3,0.4-0.3s0,0.4,0.1,0.5s0.4,0,0.5,0c0.2-0.1,0.3-0.2,0.4-0.4
			c0.1-0.3,0.3-0.7,0.5-1c0.1-0.2,0.4-0.8,0.5-1c0.1-0.2,0.7-1.2,0.8-1.3c0.1-0.2,0.3-0.3,0.3-0.5c0.1-0.1,0.2-0.5,0.3-0.8
			c0.1-0.3,0.6-0.9,0.6-1c0-0.1,0.4-0.8,0.5-1c0.1-0.2,0.5-0.7,0.6-1c0.1-0.2,0.4-0.8,0.4-0.8l0.3-0.5c0,0,0.1-0.2,0.2-0.5
			c0.1-0.3,0.5-0.9,0.6-1.1c0.1-0.2,0.3-0.4,0.4-0.6l0.2-0.5l0.2-0.4c0,0,0.2-0.5,0.2-0.6c0.1-0.1,0.3-0.4,0.4-0.6s0.3-0.9,0.4-1.1
			s0.6-1.2,0.7-1.4c0.1-0.2,0.6-1.2,0.7-1.4c0-0.2,0.1-0.4,0.2-0.6c0.1-0.1,0.3-0.5,0.3-0.6c0-0.1,0.4-1,0.5-1.1
			c0.1-0.2,0.1-0.4,0.2-0.4c0.2,0,0.2,0.2,0.3,0.3s0.3,0.1,0.5,0.3c0.2,0.2,0.4,0.4,0.6,0.7c0,0.1,0.3,0.1,0.3,0.2
			c0.1,0.1,0.1,0.3,0.2,0.3c0.2,0.1,0.4,0.3,0.5,0.4c0.1,0.1,0.1,0.3,0.2,0.4c0.2,0.1,0.4,0.3,0.6,0.4c0,0.1,0.7,0.9,0.8,1
			s0.1,0.3,0.2,0.4c0.1,0.1,0.3,0.2,0.3,0.3c0,0.2,0,0.4,0.1,0.5c0.1,0.1,0.3,0.2,0.3,0.3c0.1,0.2,0.1,0.3,0.2,0.5
			c0.1,0.1,0.1,0.1,0.2,0.2c0,0.2,0.1,0.4,0.1,0.5c0.1,0.2,0.2,0.3,0.3,0.5c0.1,0.1,0.3,0.4,0.3,0.5s0,0.5,0.1,0.6
			c0.1,0.1,0.2,0.4,0.2,0.5v0.3l0.1,0.4c0.1,0.2,0.1,0.3,0.2,0.5c0,0.1,0,0.2,0.1,0.4c0,0.1,0.2,0.3,0.2,0.4
			c0.1,0.2,0.1,0.3,0.2,0.5c0,0.2,0,0.3,0,0.5c0.1,0.1,0.2,0.3,0.2,0.5c0,0.1,0,0.2,0,0.3l0.1,0.2c0,0.1,0,0.2,0,0.3
			c0,0.1,0,0.2,0,0.3c0.1,0.1,0.2,0.3,0.2,0.4c-0.1,0.1-7.8,3.7-11.1,5.2c-4.8,2.2-14.7,7.2-15.8,7.8c-1.1,0.6-1.7,1-2,0.8
			c-1.1-0.7-1.8-1.7-2.2-3c-0.4-1.1-0.6-2.3-0.5-3.4c-0.1-0.5,0.2-1.1,0.7-1.3C28.6,64,30,63.2,30.7,62.8"/>
		<path class="st0" d="M16.9,35.4c0,0.1,0.2,0.1,0.3,0.1s0.2,0.1,0.3,0.1c0.1,0,0.2,0,0.2,0c0,0,0.1,0.2,0.2,0.3s0.1,0.3,0.2,0.3
			c0.1,0,0.3,0,0.3,0.1s0,0.3,0,0.4c0.2,0.4,0,1.4,0.2,1.5c0.3,0,0.7-0.1,1-0.3c0.2-0.2,0.4-0.4,0.6-0.5c0.4-0.2,0.7-0.4,1.1-0.5
			c0.3-0.1,0.4-0.5,0.7-0.5c0.3,0,0.2-0.2,0.4-0.3c0.2-0.1,0.5-0.3,0.6-0.2c0.1,0.1,0.2,0.2,0.3,0.3c0.2,0.1,0.4,0,0.5,0.2
			c0,0.2,0.6,0,0.6,0c0.3-0.2,0.6-0.4,0.9-0.5c0.3-0.1,1-0.5,1-0.5s0.5-0.3,0.8-0.4c8.3-4,14.9-6.2,21-8.6
			c9.4-3.6,25.7-7.8,28.8-8.6c0.3-0.1,1-0.2,1.1-0.3c0.2-0.1,0.3-0.2,0.3-0.4c0.1-0.3-0.1-0.7-0.1-0.9s0.3-0.7,0.4-1
			c0-0.1-0.1-0.3-0.2-0.3c0,0,0,0,0,0c0-0.2,0-0.4,0-0.5c-0.1-0.2-0.5-0.5-0.6-0.6c-0.1-0.2,0-0.7-0.1-1c-0.1-0.1-0.2-0.3-0.3-0.3
			c0-0.1,0-0.2,0-0.3c0-0.1-0.1-0.2-0.2-0.2c0-0.2,0-0.3,0-0.5c0-0.1-0.2-0.2-0.2-0.2s-0.2-0.1-0.2-0.3c0-0.1-0.1-0.2-0.2-0.3
			C76.2,11,76,11,75.8,11c-0.2-0.1-0.4-0.1-0.6-0.1c-0.2,0.1-0.5,0.2-0.8,0.3c-0.3,0-0.6,0-1,0c-0.2,0-0.5,0.2-0.7,0.3
			c-2.5,0.7-14.1,4-22.6,7.2c-7.9,3-15.6,6.4-23.1,10.3c-4.3,2.3-6.7,3.6-7.6,4.2c-0.4,0.2-0.8,0.5-1.1,0.8
			c-0.1,0.2-0.3,0.6-0.6,0.6c-0.3,0-0.3,0.3-0.4,0.3c-0.1,0.1-0.3,0.2-0.4,0.3C16.9,35.2,16.9,35.3,16.9,35.4"/>
		<path class="st0" d="M52.9,30.3c-0.4-0.2-0.3-0.4,0.2-0.6c2.8-1.2,9.7-3.7,13.7-4.9c3.4-1.1,12.8-4.1,15.4-4.9
			c0.6-0.2,0.9-0.2,1.2,0.1c0.8,0.9,1.5,1.9,2.1,3c0.6,1.2,1,2.5,1.3,3.9c0.2,0.8-0.2,0.9-0.6,1.1C83.2,29.3,76,32.4,73,33.8
			c-3,1.4-8.3,3.9-10.1,4.8c-0.8,0.4-0.6,0.5-1.2,0c-0.2-0.2-0.3-0.5-0.5-0.7c-0.1-0.1-1.1-1-1.2-1.1c-0.3-0.3-0.5-0.6-0.8-0.9
			c-0.1-0.1-0.6-0.8-0.8-0.9c-0.2-0.1-0.3-0.2-0.5-0.3c-0.1-0.2-0.3-0.3-0.4-0.4c-0.1-0.1-0.4-0.3-0.4-0.3L57,33.7l-0.3-0.4
			c-0.1-0.2-0.3-0.3-0.4-0.4c-0.2-0.1-0.4-0.3-0.5-0.5c-0.3-0.4-0.6-0.7-1-1c-0.3-0.2-1-0.6-1.2-0.8C53.4,30.5,53.2,30.4,52.9,30.3"
			/>
		<path class="st0" d="M63.5,40.4c-0.3-0.3,0.1-0.3,0.4-0.4c1.2-0.5,8.5-2.7,14.8-4.4c6.3-1.7,15.4-3.5,16.7-3.8
			c0.6-0.1,0.8,0,1.1,0.4c0.6,1.2,1,2.5,1.3,3.8c0.2,1.4,0.2,2.8-0.1,4.1c-0.1,0.4-0.7,0.4-1.9,0.7c-0.7,0.2-3.8,1-5.2,1.4
			c-1.5,0.4-5.4,1.6-6.9,2c-1.8,0.6-4.1,1.4-4.1,1.4l-12.4,0.2c-0.1-0.3-0.2-0.6-0.3-0.9c-0.1-0.1-0.3-0.5-0.4-0.6
			c-0.1-0.2-0.2-0.3-0.3-0.5c0,0-0.1-0.4-0.2-0.5s-0.4-0.7-0.5-0.8c-0.2-0.2-0.3-0.3-0.5-0.5c-0.1-0.2-0.2-0.3-0.4-0.5
			c-0.2-0.2-0.4-0.4-0.6-0.5C63.9,40.9,63.8,40.7,63.5,40.4"/>
		<path class="st0" d="M48.4,16.3c-0.4,0-0.7,0-0.8-0.1s0-0.2-0.1-0.2c-0.1-0.1-0.2-0.1-0.3,0c0,0-0.1,0.1-0.2,0.1
			c-0.1,0-0.6-0.1-0.8-0.1c-0.2,0.1-0.4,0.1-0.6,0c-0.1-0.1-0.1-0.4-0.3-0.5c-0.2-0.1-0.4-0.2-0.6-0.4c-0.1-0.2-0.4-0.5-0.5-0.6
			s-0.2-0.4-0.2-0.5c-0.1-0.1-0.1-0.3-0.2-0.4c-0.1-0.1-0.2-0.2-0.2-0.2c-0.1-0.1-0.2-0.3-0.2-0.5c0-0.1-0.1-0.2-0.2-0.3
			c0-0.1,0-0.2-0.1-0.3C43.1,12.2,43,12.1,43,12c-0.1-0.4-0.1-0.8-0.1-1.3c0-0.4,0-0.8,0.1-1.2c0-0.2,0.2-0.4,0.2-0.6
			c0-0.2,0.3-0.9,0.4-1.2c0.1-0.4,0.2-0.8,0.3-1.1c0.1-0.3,0.3-0.7,0.4-1c0.1-0.2,0.5-0.8,0.7-1c0.4-0.4,0.7-0.8,1.1-1.1l0.7-0.5
			c0.1-0.1,0.6-0.4,0.8-0.5c0.1-0.1,0.2-0.1,0.3-0.1l0.2-0.2c0.1-0.1,0.1-0.1,0.2-0.2C48.4,2,48.6,2,48.7,2c0.2-0.1,0.4-0.2,0.6-0.2
			c0.1,0,0.2-0.2,0.3-0.2c0.2,0,0.4,0,0.6,0c0.1,0.1,0.2,0.2,0.4,0.2c0.2,0,0.4,0,0.5,0S51.2,2,51.3,2c0.5,0.4,0.9,0.8,1.2,1.2
			c0,0.1,0.1,0.2,0.1,0.3c0.1,0.1,0.2,0.3,0.3,0.4c0,0.2,0.3,0.3,0.3,0.6s0.3,0.3,0.4,0.7c0,0.1,0.1,0.4,0.1,0.5
			c0,0.1,0.1,0.1,0.1,0.2c0,0.1,0.1,0.3,0.1,0.5c0,0.2,0.3,0.7,0.2,1.1c0,0.3-0.1,0.6-0.2,1c-0.1,0.3,0,0.8-0.1,1
			c-0.1,0.2-0.2,0.7-0.2,0.9c-0.2,0.4-0.3,0.9-0.5,1.3c-0.1,0.1-0.3,0.6-0.4,0.7c-0.1,0.1-1,1.3-1.1,1.5c-0.2,0.2-0.5,0.4-0.6,0.6
			c-0.1,0.1-0.2,0.3-0.3,0.5s-0.4,0.1-0.5,0.3c-0.1,0.2-0.4,0.3-0.5,0.5c-0.1,0.2-0.2,0.4-0.4,0.5C49,16.2,48.7,16.3,48.4,16.3"/>
		<path class="st0" d="M23.4,52.9c0,0-3.7,1.2-5.1,1.8c-1.5,0.5-2.9,1-3.9,1.4c-1.2,0.5-3.4,1.4-4,1.6c-0.8,0.3-1.1,0.1-1.4-0.4
			c-0.4-0.9-0.8-1.7-1-2.7c-0.2-0.8-0.4-1.7-0.4-2.5c0-0.5,0.3-1,0.7-1.3c0.5-0.2,1.5-0.9,2.4-1.4c1.6-1,7.2-3.9,10.6-5.7
			c3.5-1.8,9.1-4.5,12.1-6c3-1.5,7.9-3.8,8.5-4.1c0.5-0.3,1-0.4,1.5-0.6c0.3,0,0.2,0.2,0.2,0.3s-0.1,0.2-0.1,0.4
			c0,0.2,0,0.5-0.1,0.7c-0.1,0.2-0.3,0.4-0.3,0.6c0,0.3-0.1,0.6-0.2,0.9c-0.3,0.5-0.6,1.1-0.8,1.7c-0.1,0.5-0.3,1-0.5,1.4
			c-0.2,0.3-0.4,0.7-0.5,1.1c0,0.2-0.3,0.7-0.3,1c-0.1,0.2-0.5,1-0.6,1.2c-0.1,0.1-0.4,1.2-0.4,1.3c0,0.1-0.4,0.6-0.4,0.6l-0.2,0.6
			c-0.2,0.2-0.3,0.5-0.4,0.7c-0.1,0.5-0.2,0.9-0.4,1.3c-0.4,0.8-0.7,1.6-1,2.4c-0.2,0.5-0.4,1.4-0.5,1.5c-0.1,0.2-0.5,0.8-0.6,1.1
			c-0.1,0.2-0.5,1.3-0.6,1.6c-0.2,0.3-0.3,0.7-0.4,1.1c-0.1,0.4-0.2,0.7-0.4,1.1c-0.2,0.4-0.4,1.1-0.5,1.4c-0.1,0.3-0.3,0.4-0.3,0.6
			c0,0.1-0.1,0.6-0.1,0.7L34,58.6c-0.2,0.1-10.1,4.4-11.5,5l-12.2,5.8c-0.6,0.3-1.5,1-2.1,0.5c-0.9-0.7-1.6-1.7-2-2.7
			c-0.5-1-0.8-2.1-1-3.3c-0.1-1.3,0.4-1.5,2.3-2.6c1-0.5,8.2-4.4,10.5-5.6L23.4,52.9"/>
		<path d="M176.2,69.5c0.3-1.1-0.8-2-2.8-2c-2,0-3.6,0.9-3.8,2c-0.3,1,0.5,1.7,1.8,1.9l-0.2,0.8c-1.1,0-2.3,0-3.4,0l-0.2,1.5
			c2.1,0,6.1-0.2,8.6-0.5c0.1-0.4,0.1-0.9,0.2-1.3c-1.1,0.1-2.2,0.2-3.3,0.3l0.2-0.7C174.9,71.2,176,70.5,176.2,69.5 M181.3,63.7h-2
			l-3.2,11.7h2L181.3,63.7z M177.5,67.3l0.3-1.3h-7.9l-0.3,1.3H177.5z M172.1,65.5h3.8l0.4-1.3h-3.8L172.1,65.5z M174.2,69.6
			c-0.1,0.5-0.8,0.8-1.5,0.8s-1.2-0.3-1.1-0.8c0.3-0.6,0.9-0.9,1.5-0.8C173.9,68.7,174.4,69.1,174.2,69.6 M163.3,63.6h-1.9
			l-3.2,11.7h2l1.6-5.9h1.9L164,68h-1.9L163.3,63.6z M158.9,71.1c-1.8-1-2.5-2.6-1.8-5.1l0.4-1.5h-2.1l-0.4,1.5
			c-0.6,2.5-2.4,4.5-4.7,5.4c0.3,0.4,0.6,0.9,0.9,1.3c1.6-0.7,3-1.8,4-3.2c0.3,1.3,1.1,2.3,2.3,2.9
			C157.9,72.1,158.4,71.6,158.9,71.1 M137.3,67.2c0.3-0.9,1.2-1.4,2.1-1.4c1,0,1.6,0.5,1.4,1.4c-0.3,0.9-1.2,1.4-2.1,1.4
			C137.6,68.6,137,68,137.3,67.2 M142.3,71c-1,0.1-2.7,0.2-4.5,0.3c-1.3,0-2.7,0-4.3,0l-0.2,1.5c1.2,0,2.9,0,4.3-0.1
			c1.5-0.1,3.4-0.2,4.4-0.3L142.3,71z M146.9,63.6h-2l-3.1,11.7h1.9L146.9,63.6z M135.4,67.1c-0.5,1.7,0.8,2.8,2.9,2.8
			s4-1.1,4.4-2.8c0.5-1.7-0.9-2.8-2.9-2.8C137.7,64.3,135.8,65.5,135.4,67.1 M128.5,70.6l0.4-1.4h-12.2l-0.4,1.4H128.5z M127.6,68.3
			l0.4-1.4h-7.1l0.8-2.9h-2l-1.1,4.3L127.6,68.3z M125.9,75l0.4-1.4H119l0.6-2.1h-2l-1,3.5L125.9,75z M104.1,75.1l0.2-0.8l0.5,1
			c1-0.3,1.9-0.9,2.6-1.6c0.2,0.8,0.9,1.4,1.6,1.6l1.4-1.4c-1-0.2-1.7-1.1-1.5-2.1c0-0.1,0.1-0.2,0.1-0.4l0.3-1h-1.9l-0.3,1
			c-0.4,1.3-1.5,2.2-2.8,2.5l1-3.4h-1.9l-0.3,1.2H102l0.3-1.2h-1.9l-1.2,4.6L104.1,75.1z M100.1,66.9c-0.4,1.6,0.8,2.7,2.8,2.7
			s3.8-1.1,4.3-2.7s-0.8-2.7-2.8-2.7C102.4,64.2,100.5,65.2,100.1,66.9 M110.4,69.9l1.7-6.2h-2l-0.7,2.5h-1.5l-0.4,1.4h1.5l-0.7,2.3
			H110.4z M102,66.9c0.3-0.8,1.1-1.4,1.9-1.3c1,0,1.5,0.5,1.3,1.3c-0.3,0.9-1.1,1.4-2,1.3C102.3,68.3,101.8,67.8,102,66.9
			 M102.5,73.9h-1.1l0.2-0.9h1.1L102.5,73.9z M90.3,72.9c-0.2,0.7-1.2,1.1-2.9,1.1s-2.4-0.4-2.2-1.1c0.2-0.7,1.3-1.1,2.8-1.1
			S90.5,72.2,90.3,72.9 M93,70.2l1.8-6.6h-2l-0.5,1.9h-2.1l-0.3,1.3h2.1l-0.3,1h-2.2l-0.4,1.3h2.2l-0.3,1L93,70.2z M84,64.4
			l-0.4,1.4h4.2c-0.7,1.5-3.2,3-5.8,3.4l0.4,1.4c4-0.9,7-3,7.9-6.2H84z M92.4,72.9c0.4-1.5-1.1-2.5-4-2.5c-2.9,0-4.8,1-5.2,2.5
			c-0.4,1.5,1,2.4,3.9,2.4S92,74.4,92.4,72.9 M65.7,71.1l-0.4,1.4h7.2l-0.8,2.8h2l1.1-4.2h-3.5l0.5-1.8h5.1l0.4-1.3h-1.9
			c0.6-1.2,1.1-2.6,1.4-3.9h-9l-0.4,1.4h7c-0.2,0.9-0.6,1.7-1,2.5h-8.3l-0.3,1.3h5.1l-0.5,1.8L65.7,71.1z"/>
	</g>
</g>
</svg>
